# xmcd CD database file
#
# Track frame offsets:
#	150
#	2488
#	21647
#	32595
#	50483
#	65943
#	81033
#	96193
#	106233
#	120783
#	144108
#	164858
#	184720
#	201278
#
# Disc length: 3648 seconds
#
# Revision: 0
# Processed by: cddbd v1.5.2PL0 Copyright (c) Steve Scherf et al.
# Submitted via: CDex 1.70beta2
#
DISCID=b90e3e0e
DTITLE=MOCCA - COLOURS
DYEAR=2007
DGENRE=Jazz
TTITLE0=Intro
TTITLE1=I Love You Anyway
TTITLE2=You Don't Even Know Me
TTITLE3=(I Can't Believe) You've Cheated On Me!
TTITLE4=Dear Diary
TTITLE5=You
TTITLE6=Do What You Wanna Do
TTITLE7=Seven Days Ago
TTITLE8=The Best Thing
TTITLE9=Hyper-Ballad
TTITLE10=Sing
TTITLE11=The Object Of My Affection
TTITLE12=Let Me Go
TTITLE13=Ode For The Love Ones
EXTD=YEAR: 2007
EXTT0=
EXTT1=
EXTT2=
EXTT3=
EXTT4=
EXTT5=
EXTT6=
EXTT7=
EXTT8=
EXTT9=
EXTT10=
EXTT11=
EXTT12=
EXTT13=
PLAYORDER=
